<svg xmlns="http://www.w3.org/2000/svg" width="576" height="576" viewBox="0 0 576 576" fill="none">
  <defs>
    <path id="tile" pathLength="100" d="M72 0 C72 10 88 10 88 20 H96 V28 C96 46 116 46 116 56 H124 C124 64 136 64 144 72 C136 80 124 80 124 88 H116 C116 98 96 98 96 116 H88 V124 C88 134 72 134 72 144 C72 134 56 134 56 124 H48 V116 C48 98 28 98 28 88 H20 C20 80 8 80 0 72 C8 64 20 64 20 56 H28 C28 46 48 46 48 28 H56 V20 C56 10 72 10 72 0Z"/>
    <filter id="soft" x="-10%" y="-10%" width="120%" height="120%">
      <feGaussianBlur stdDeviation="2"/>
    </filter>
  </defs>
  <g stroke-linecap="round" stroke-dasharray="26 74" opacity="0">
    <animate attributeName="opacity" values="0;.16;.16;0;0" keyTimes="0;.1;.5;.65;1" dur="4.5s" repeatCount="indefinite"/>
    <animate attributeName="stroke-dashoffset" from="0" to="-100" dur="4.5s" repeatCount="indefinite"/>
    <use href="#tile" x="144" y="144" stroke="#DCCFC1" stroke-width="5" filter="url(#soft)"/>
    <use href="#tile" x="144" y="144" stroke="#DCCFC1" stroke-width="2"/>
    <use href="#tile" x="144" y="144" stroke="#DCCFC1" stroke-width=".8"/>
  </g>
  <g stroke-linecap="round" stroke-dasharray="24 76" opacity="0">
    <animate attributeName="opacity" values="0;0;.12;.12;0" keyTimes="0;.35;.45;.85;1" dur="5.2s" repeatCount="indefinite"/>
    <animate attributeName="stroke-dashoffset" from="-25" to="-125" dur="5.2s" repeatCount="indefinite"/>
    <use href="#tile" x="432" y="432" stroke="#DCCFC1" stroke-width="5" filter="url(#soft)"/>
    <use href="#tile" x="432" y="432" stroke="#DCCFC1" stroke-width="2"/>
    <use href="#tile" x="432" y="432" stroke="#DCCFC1" stroke-width=".8"/>
  </g>
</svg>
